<?xml version="1.0" encoding="UTF-8"?>
<svg id="Layer_1" data-name="Layer 1" xmlns="http://www.w3.org/2000/svg" viewBox="0 0 841.7 841.7">
  <defs>
    <style>
      .cls-1 {
        fill: #fff;
      }
    </style>
  </defs>
  <path class="cls-1" d="M841.7,392.66v409.63c0,21.76-17.64,39.4-39.4,39.4h0c-20.81,0-38.26-16.18-39.3-36.96-4.04-80.27-33.68-144.84-88.76-176.68-108.77-62.82-278.79,24.38-395.16,196.44-7.29,10.77-19.49,17.19-32.5,17.19h-48.98c-34.95,0-52.83-42.34-28.08-67.02,38.91-38.8,75.32-85.93,106.42-139.78,115.58-200.19,113.96-417.46-3.59-485.31-59.11-34.14-136.29-24.01-213.11,19.98C32.85,184.67,0,165.97,0,135.57V39.4C0,17.64,17.64,0,39.4,0h440.3c28.48,0,47.34,29.22,35.99,55.34-76.73,176.58-57.93,344.6,39.2,414.78,74.28,53.67,154.96-9.27,214.42-98.97,21.65-32.66,72.38-17.67,72.38,21.51Z"/>
</svg>