<?xml version="1.0" encoding="UTF-8"?>
<svg id="Layer_1" data-name="Layer 1" xmlns="http://www.w3.org/2000/svg" viewBox="0 0 4180.09 841.7">
  <defs>
    <style>
      .cls-1 {
        letter-spacing: 0em;
      }

      .cls-2, .cls-3 {
        fill: #fff;
      }

      .cls-3 {
        font-family: NHaasGroteskDSPro-75Bd, 'Neue Haas Grotesk Display Pro';
        font-size: 604.99px;
      }

      .cls-4 {
        letter-spacing: -.06em;
      }

      .cls-5 {
        letter-spacing: -.01em;
      }

      .cls-6 {
        letter-spacing: -.05em;
      }

      .cls-7 {
        letter-spacing: -.05em;
      }

      .cls-8 {
        letter-spacing: -.05em;
      }

      .cls-9 {
        letter-spacing: -.03em;
      }

      .cls-10 {
        letter-spacing: -.04em;
      }

      .cls-11 {
        letter-spacing: -.03em;
      }

      .cls-12 {
        letter-spacing: 0em;
      }
    </style>
  </defs>
  <path class="cls-2" d="M841.7,392.66v409.63c0,21.76-17.64,39.4-39.4,39.4h0c-20.81,0-38.26-16.18-39.3-36.96-4.04-80.27-33.68-144.84-88.76-176.68-108.77-62.82-278.79,24.38-395.16,196.44-7.29,10.77-19.49,17.19-32.5,17.19h-48.98c-34.95,0-52.83-42.34-28.08-67.02,38.91-38.8,75.32-85.93,106.42-139.78,115.58-200.19,113.96-417.46-3.59-485.31-59.11-34.14-136.29-24.01-213.11,19.98C32.85,184.67,0,165.97,0,135.57V39.4C0,17.64,17.64,0,39.4,0h440.3c28.48,0,47.34,29.22,35.99,55.34-76.73,176.58-57.93,344.6,39.2,414.78,74.28,53.67,154.96-9.27,214.42-98.97,21.65-32.66,72.38-17.67,72.38,21.51Z"/>
  <text class="cls-3" transform="translate(984.56 593.48)"><tspan class="cls-5" x="0" y="0">S</tspan><tspan class="cls-4" x="385.38" y="0">ev</tspan><tspan class="cls-9" x="973.42" y="0">e</tspan><tspan class="cls-8" x="1294.06" y="0">n</tspan><tspan class="cls-12" x="1611.07" y="0">t</tspan><tspan class="cls-1" x="1819.79" y="0">y</tspan><tspan class="cls-7" x="2140.43" y="0">f</tspan><tspan class="cls-11" x="2318.91" y="0">o</tspan><tspan class="cls-6" x="2650.44" y="0">u</tspan><tspan class="cls-10" x="2963.82" y="0">r</tspan></text>
</svg>